<svg xmlns="http://www.w3.org/2000/svg" viewBox="0 0 137.06 168.64"><defs><style>.cls-1{fill:#fdd835;}.cls-2{fill:#3e2723;}</style></defs><title>Asset 3</title><g id="Layer_2" data-name="Layer 2"><g id="OBJECTS"><rect class="cls-1" x="17.84" y="121" width="101.39" height="21.18" rx="6.63" ry="6.63"/><rect class="cls-1" y="94.55" width="137.06" height="21.18" rx="6.63" ry="6.63"/><rect class="cls-1" y="68.09" width="137.06" height="21.18" rx="6.63" ry="6.63"/><rect class="cls-1" x="17.84" y="41.63" width="101.39" height="21.18" rx="6.63" ry="6.63"/><path class="cls-2" d="M41.19,150.14l27.34,18.5,27.34-18.5a1.47,1.47,0,0,0-.82-2.68H42A1.47,1.47,0,0,0,41.19,150.14Z"/><path class="cls-2" d="M86.05,15.17H83.49l8.68-8.68a3.45,3.45,0,1,0-1.43-1.43l-10.1,10.1H56.43L46.32,5.07a3.45,3.45,0,1,0-1.43,1.43l8.68,8.68H51A13.78,13.78,0,0,0,37.23,29v3.7a3.7,3.7,0,0,0,3.7,3.7H96.14a3.7,3.7,0,0,0,3.7-3.7V29A13.78,13.78,0,0,0,86.05,15.17Z"/></g></g></svg>