<svg xmlns="http://www.w3.org/2000/svg" viewBox="0 0 77.82 95.33"><defs><style>.cls-1{fill:#3e2723;}.cls-2{fill:#fdd835;}.cls-3{fill:#fff;}</style></defs><title>Asset 2</title><g id="Layer_2" data-name="Layer 2"><g id="OBJECTS"><path class="cls-1" d="M75.21,27.23l-14.38-8.3L71,8.8A4.67,4.67,0,1,0,69,6.87L58.38,17.51,41.52,7.78a5.23,5.23,0,0,0-5.23,0L19.45,17.51,8.8,6.87A4.67,4.67,0,1,0,6.87,8.8L17,18.93,2.61,27.23A5.23,5.23,0,0,0,0,31.75v38.9a5.23,5.23,0,0,0,2.61,4.53L36.3,94.63a5.23,5.23,0,0,0,5.23,0L75.21,75.18a5.23,5.23,0,0,0,2.61-4.53V31.75A5.23,5.23,0,0,0,75.21,27.23Z"/><path class="cls-2" d="M71.45,64.78H6.37a1.91,1.91,0,0,0-1.91,1.91V69a3.6,3.6,0,0,0,1.8,3.12L9.83,74.2a7,7,0,0,0,3.51.94H64.48A7,7,0,0,0,68,74.2l3.57-2.06A3.6,3.6,0,0,0,73.36,69V66.69A1.91,1.91,0,0,0,71.45,64.78Z"/><path class="cls-2" d="M55.3,80.63H22.52a.41.41,0,0,0-.21.77l15.21,8.78a2.78,2.78,0,0,0,2.78,0L55.51,81.4A.41.41,0,0,0,55.3,80.63Z"/><rect class="cls-2" x="4.46" y="48.94" width="68.9" height="10.35" rx="1.91" ry="1.91"/><ellipse class="cls-3" cx="27.26" cy="26.1" rx="3.76" ry="4.7"/><ellipse class="cls-3" cx="50.57" cy="26.1" rx="3.76" ry="4.7"/></g></g></svg>