<svg xmlns="http://www.w3.org/2000/svg" viewBox="0 0 104.81 92.57"><defs><style>.cls-1{fill:#3e2723;}.cls-2{fill:#b3e5fc;}.cls-3{fill:#fdd835;}</style></defs><title>Asset 1</title><g id="Layer_2" data-name="Layer 2"><g id="OBJECTS"><path class="cls-1" d="M74.79,33c0,32.89-22.39,59.55-22.39,59.55S30,65.91,30,33q0-1,0-2c1-34.2,43.76-34.2,44.72,0Q74.79,32,74.79,33Z"/><path class="cls-2" d="M84,35.16H77.7v7.59c0,7.47,5,13.52,11.21,13.52h6.3V48.69C95.21,41.22,90.19,35.16,84,35.16Z"/><path class="cls-2" d="M87.45,32.68H77.7V20.93C77.7,9.37,85.47,0,95.06,0h9.75V11.75C104.81,23.31,97,32.68,87.45,32.68Z"/><path class="cls-2" d="M17.36,32.68h9.75V20.93C27.11,9.37,19.33,0,9.75,0H0V11.75C0,23.31,7.77,32.68,17.36,32.68Z"/><path class="cls-3" d="M67.38,67.12c-1.17,2.76-2.4,5.36-3.63,7.75H41.07c-1.23-2.39-2.47-5-3.63-7.75Z"/><path class="cls-3" d="M73.37,47.63c-.5,2.66-1.13,5.24-1.84,7.75H33.28c-.72-2.5-1.34-5.09-1.84-7.75Z"/><path class="cls-3" d="M74.79,33c0,1,0,1.91-.06,2.86H30.08C30,34.94,30,34,30,33q0-1,0-2.06c0-1,.09-1.91.19-2.83H74.58c.1.92.16,1.87.19,2.83Q74.79,32,74.79,33Z"/><path class="cls-2" d="M20.81,35.16h6.3v7.59c0,7.47-5,13.52-11.21,13.52H9.59V48.69C9.59,41.22,14.62,35.16,20.81,35.16Z"/></g></g></svg>